<?xml version="1.0" standalone="no"?><!DOCTYPE svg PUBLIC "-//W3C//DTD SVG 1.1//EN" "http://www.w3.org/Graphics/SVG/1.1/DTD/svg11.dtd"><svg t="1648906211130" class="icon" viewBox="0 0 1024 1024" version="1.1" xmlns="http://www.w3.org/2000/svg" p-id="25271" xmlns:xlink="http://www.w3.org/1999/xlink" width="200" height="200"><defs><style type="text/css">@font-face { font-family: feedback-iconfont; src: url("//at.alicdn.com/t/font_1031158_u69w8yhxdu.woff2?t=1630033759944") format("woff2"), url("//at.alicdn.com/t/font_1031158_u69w8yhxdu.woff?t=1630033759944") format("woff"), url("//at.alicdn.com/t/font_1031158_u69w8yhxdu.ttf?t=1630033759944") format("truetype"); }
</style></defs><path d="M513.6 270.08C724.352 106.464 616.16 0 616.16 0c16.096 169.184-174.208 209.152-225.216 325.44-34.784 79.328 23.84 148.8 122.528 236.32-8.736-19.392-22.176-38.208-35.808-57.28-46.464-65.088-94.848-132.864 35.872-234.368z" fill="#E76F00" p-id="25272"></path><path d="M547.232 597.664s63.424-51.2 13.184-108.032c-170.24-192.96 186.24-280.48 186.24-280.48-217.664 104.864-185.152 167.072-130.464 242.688 58.56 81.088-68.96 145.824-68.96 145.824z" fill="#E76F00" p-id="25273"></path><path d="M733.984 750.272c195.36-99.84 105.024-195.776 41.984-182.848-15.456 3.168-22.336 5.888-22.336 5.888s5.76-8.832 16.704-12.672c124.736-43.104 220.64 127.2-40.288 194.656 0 0 3.04-2.656 3.936-5.024zM327.456 623.904c-122.24-16.064 67.04-60.256 67.04-60.256s-73.504-4.864-163.904 38.08c-106.88 50.88 264.384 73.984 456.576 24.288 19.968-13.44 47.584-25.056 47.584-25.056s-78.624 13.792-156.96 20.288c-95.84 7.904-198.72 9.44-250.336 2.656zM373.952 719.232c-68.16-6.944-23.52-39.424-23.52-39.424-176.384 57.568 98.144 122.848 344.608 51.968-26.208-9.088-42.88-25.696-42.88-25.696-120.448 22.816-190.048 22.08-278.208 13.12zM403.648 822.4c-68.096-7.712-28.32-30.496-28.32-30.496-160.096 44 97.408 134.88 301.248 48.96-33.376-12.736-57.28-27.488-57.28-27.488-90.944 16.928-133.12 18.24-215.648 8.992z" fill="#5382A1" p-id="25274"></path><path d="M830.048 874.848s29.44 23.84-32.448 42.304c-117.664 35.072-489.728 45.632-593.088 1.408-37.152-15.904 32.512-37.952 54.432-42.56 22.848-4.896 35.936-4 35.936-4-41.344-28.608-267.104 56.224-114.688 80.512 415.616 66.272 757.664-29.856 649.856-77.664z" fill="#5382A1" p-id="25275"></path><path d="M896 926.976c-6.816 87.264-294.784 105.6-482.336 93.792-122.336-7.68-146.848-26.976-147.2-27.264 117.088 18.976 314.496 22.432 474.56-7.168C882.88 960.064 896 926.976 896 926.976z" fill="#5382A1" p-id="25276"></path></svg>