<?xml version="1.0" standalone="no"?><!DOCTYPE svg PUBLIC "-//W3C//DTD SVG 1.1//EN" "http://www.w3.org/Graphics/SVG/1.1/DTD/svg11.dtd"><svg t="1648906991934" class="icon" viewBox="0 0 1024 1024" version="1.1" xmlns="http://www.w3.org/2000/svg" p-id="2148" xmlns:xlink="http://www.w3.org/1999/xlink" width="200" height="200"><defs><style type="text/css">@font-face { font-family: feedback-iconfont; src: url("//at.alicdn.com/t/font_1031158_u69w8yhxdu.woff2?t=1630033759944") format("woff2"), url("//at.alicdn.com/t/font_1031158_u69w8yhxdu.woff?t=1630033759944") format("woff"), url("//at.alicdn.com/t/font_1031158_u69w8yhxdu.ttf?t=1630033759944") format("truetype"); }
</style></defs><path d="M396 140h-56c-4.4 0-8 3.6-8 8v56c0 4.4 3.6 8 8 8h56c4.4 0 8-3.6 8-8v-56c0-4.4-3.6-8-8-8zM352 824h-56c-4.4 0-8 3.6-8 8v56c0 4.4 3.6 8 8 8h56c4.4 0 8-3.6 8-8v-56c0-4.4-3.6-8-8-8zM876 620h-56c-4.4 0-8 3.6-8 8v56c0 4.4 3.6 8 8 8h56c4.4 0 8-3.6 8-8v-56c0-4.4-3.6-8-8-8zM192 344h-56c-4.4 0-8 3.6-8 8v56c0 4.4 3.6 8 8 8h56c4.4 0 8-3.6 8-8v-56c0-4.4-3.6-8-8-8zM192 504h-56c-4.4 0-8 3.6-8 8v56c0 4.4 3.6 8 8 8h56c4.4 0 8-3.6 8-8v-56c0-4.4-3.6-8-8-8zM192 664h-56c-4.4 0-8 3.6-8 8v56c0 4.4 3.6 8 8 8h56c4.4 0 8-3.6 8-8v-56c0-4.4-3.6-8-8-8zM192 824h-56c-4.4 0-8 3.6-8 8v56c0 4.4 3.6 8 8 8h56c4.4 0 8-3.6 8-8v-56c0-4.4-3.6-8-8-8zM512 824h-56c-4.4 0-8 3.6-8 8v56c0 4.4 3.6 8 8 8h56c4.4 0 8-3.6 8-8v-56c0-4.4-3.6-8-8-8zM672 824h-56c-4.4 0-8 3.6-8 8v56c0 4.4 3.6 8 8 8h56c4.4 0 8-3.6 8-8v-56c0-4.4-3.6-8-8-8zM812 540c0 4.4 3.6 8 8 8h56c4.4 0 8-3.6 8-8V370c0-127-103-230-230-230H484c-4.4 0-8 3.6-8 8v56c0 4.4 3.6 8 8 8h170c87.3 0 158 70.7 158 158v170z" p-id="2149" fill="#e8de17" data-spm-anchor-id="a313x.7781069.0.i1" class=""></path><path d="M236 96H92c-4.4 0-8 3.6-8 8v144c0 4.4 3.6 8 8 8h144c4.4 0 8-3.6 8-8V104c0-4.4-3.6-8-8-8z m-48 101.6c0 1.3-1.1 2.4-2.4 2.4h-43.2c-1.3 0-2.4-1.1-2.4-2.4v-43.2c0-1.3 1.1-2.4 2.4-2.4h43.2c1.3 0 2.4 1.1 2.4 2.4v43.2zM920 780H776c-4.4 0-8 3.6-8 8v144c0 4.4 3.6 8 8 8h144c4.4 0 8-3.6 8-8V788c0-4.4-3.6-8-8-8z m-48 101.6c0 1.3-1.1 2.4-2.4 2.4h-43.2c-1.3 0-2.4-1.1-2.4-2.4v-43.2c0-1.3 1.1-2.4 2.4-2.4h43.2c1.3 0 2.4 1.1 2.4 2.4v43.2z" p-id="2150" fill="#e8de17" data-spm-anchor-id="a313x.7781069.0.i2" class=""></path></svg>