<?xml version="1.0" standalone="no"?><!DOCTYPE svg PUBLIC "-//W3C//DTD SVG 1.1//EN" "http://www.w3.org/Graphics/SVG/1.1/DTD/svg11.dtd"><svg t="1648715298533" class="icon" viewBox="0 0 1024 1024" version="1.1" xmlns="http://www.w3.org/2000/svg" p-id="8552" xmlns:xlink="http://www.w3.org/1999/xlink" width="200" height="200"><defs><style type="text/css">@font-face { font-family: feedback-iconfont; src: url("//at.alicdn.com/t/font_1031158_u69w8yhxdu.woff2?t=1630033759944") format("woff2"), url("//at.alicdn.com/t/font_1031158_u69w8yhxdu.woff?t=1630033759944") format("woff"), url("//at.alicdn.com/t/font_1031158_u69w8yhxdu.ttf?t=1630033759944") format("truetype"); }
</style></defs><path d="M364.928 107.52c-27.04-1.824-53.632 3.04-76.928 16.48-31.072 17.92-51.776 48.544-62.88 83.84-11.104 35.2-13.664 75.84-9.6 120.224 0.384 4.48 1.184 9.184 1.728 13.76-4.224 1.792-8.704 3.456-12.8 5.376-40.448 18.656-74.336 41.184-99.328 68.416C80.16 442.88 64 476.096 64 512c0 35.872 16.16 69.12 41.12 96.384 24.96 27.232 58.88 49.76 99.328 68.416 4.096 1.92 8.576 3.584 12.8 5.376-0.544 4.576-1.344 9.28-1.76 13.76-4.032 44.384-1.472 84.992 9.632 120.256 11.104 35.264 31.808 65.856 62.88 83.808 31.072 17.92 67.904 20.576 104 12.576 36.096-8 72.544-26.144 108.928-51.84 3.68-2.56 7.36-5.6 11.072-8.352 3.68 2.752 7.36 5.76 11.072 8.352 36.384 25.696 72.832 43.84 108.928 51.84 36.096 8 72.928 5.376 104-12.576 31.072-17.92 51.776-48.544 62.88-83.84 11.104-35.2 13.664-75.84 9.6-120.224-0.384-4.48-1.184-9.184-1.728-13.76 4.224-1.792 8.704-3.456 12.8-5.376 40.448-18.656 74.336-41.184 99.328-68.416C943.84 581.12 960 547.904 960 512c0-35.872-16.16-69.12-41.12-96.384-24.96-27.232-58.88-49.76-99.328-68.416-4.096-1.92-8.576-3.584-12.8-5.376 0.544-4.576 1.344-9.28 1.76-13.76 4.032-44.384 1.472-84.992-9.632-120.256-11.104-35.264-31.808-65.856-62.88-83.808-31.072-17.92-67.904-20.576-104-12.576-36.096 8-72.544 26.144-108.928 51.84-3.68 2.56-7.36 5.6-11.072 8.352-3.68-2.752-7.36-5.76-11.072-8.352-36.384-25.696-72.832-43.84-108.928-51.84a179.968 179.968 0 0 0-27.072-3.936z m-4.16 63.744c5.44 0.384 11.232 1.28 17.408 2.688 24.192 5.344 53.152 18.912 83.712 40.16a738.048 738.048 0 0 0-74.4 82.336 738.336 738.336 0 0 0-108.352 23.168c-3.136-37.056-0.448-68.928 6.976-92.544 7.648-24.192 19.04-39.04 33.888-47.648 11.136-6.4 24.384-9.408 40.736-8.16z m302.496 0c16.32-1.248 29.6 1.76 40.736 8.16 14.848 8.576 26.24 23.456 33.888 47.648 7.424 23.616 10.112 55.488 6.976 92.544a738.336 738.336 0 0 0-108.352-23.168 738.048 738.048 0 0 0-74.4-82.336c30.56-21.248 59.52-34.816 83.712-40.16 6.176-1.376 11.968-2.304 17.44-2.688zM512 254.688c11.232 10.4 22.464 21.952 33.696 34.048A947.776 947.776 0 0 0 512 288c-11.36 0-22.528 0.352-33.696 0.736 11.2-12.096 22.464-23.648 33.696-34.048zM512 352c30.88 0 60.8 1.824 89.568 4.864A846.688 846.688 0 0 1 650.56 432c15.424 26.72 28.8 53.536 40.576 80a846.624 846.624 0 0 1-40.576 80 846.688 846.688 0 0 1-48.992 75.136c-28.8 3.04-58.688 4.864-89.568 4.864-30.88 0-60.8-1.824-89.568-4.864A846.688 846.688 0 0 1 373.44 592c-15.424-26.72-28.8-53.536-40.576-80 11.744-26.464 25.152-53.28 40.576-80s31.968-51.744 48.992-75.136A846.72 846.72 0 0 1 512 352z m-176.512 19.2c-5.92 9.44-11.808 18.944-17.472 28.8a948.16 948.16 0 0 0-16.192 29.568 627.552 627.552 0 0 1-12.64-46.208c14.624-4.512 30.24-8.512 46.304-12.16z m353.024 0c16.064 3.648 31.68 7.648 46.304 12.16-3.392 14.944-7.776 30.464-12.64 46.208a948.128 948.128 0 0 0-16.192-29.568 948.736 948.736 0 0 0-17.472-28.8zM228.928 406.496c8.192 34.08 19.488 69.44 34.144 105.504a737.824 737.824 0 0 0-34.144 105.504c-33.632-15.84-59.904-34.144-76.608-52.384C135.2 546.432 128 529.152 128 512c0-17.152 7.2-34.432 24.32-53.12 16.704-18.24 42.976-36.544 76.608-52.384z m566.144 0c33.632 15.84 59.904 34.144 76.608 52.384 17.12 18.688 24.32 35.968 24.32 53.12 0 17.152-7.2 34.432-24.32 53.12-16.704 18.24-42.976 36.544-76.608 52.384A737.824 737.824 0 0 0 760.928 512c14.656-36.064 25.952-71.424 34.144-105.504zM512 416c-52.64 0-96 43.36-96 96s43.36 96 96 96 96-43.36 96-96-43.36-96-96-96z m0 64c18.048 0 32 13.952 32 32 0 18.048-13.952 32-32 32-18.048 0-32-13.952-32-32 0-18.048 13.952-32 32-32z m-210.176 114.432c5.216 9.856 10.496 19.712 16.16 29.568 5.696 9.856 11.584 19.36 17.504 28.8-16.064-3.648-31.68-7.648-46.304-12.16 3.392-14.944 7.776-30.464 12.64-46.208z m420.352 0c4.864 15.744 9.28 31.264 12.64 46.208-14.624 4.512-30.24 8.512-46.304 12.16 5.92-9.44 11.808-18.944 17.504-28.8 5.664-9.856 10.944-19.712 16.16-29.568zM279.136 704.384c33.6 9.92 69.856 17.856 108.352 23.168 23.904 30.72 48.96 58.176 74.4 82.336-30.56 21.248-59.52 34.816-83.712 40.16-24.736 5.504-43.328 3.072-58.176-5.472-14.848-8.576-26.24-23.456-33.888-47.648-7.424-23.616-10.112-55.488-6.976-92.544z m465.728 0c3.136 37.056 0.448 68.928-6.976 92.544-7.648 24.192-19.04 39.04-33.888 47.648-14.848 8.544-33.44 10.976-58.176 5.472-24.192-5.344-53.152-18.912-83.712-40.16a738.048 738.048 0 0 0 74.4-82.336 738.336 738.336 0 0 0 108.352-23.168z m-266.56 30.88c11.168 0.384 22.336 0.736 33.696 0.736s22.528-0.352 33.696-0.736c-11.2 12.096-22.464 23.648-33.696 34.048a626.72 626.72 0 0 1-33.696-34.048z" p-id="8553" fill="#707070"></path></svg>