<?xml version="1.0" standalone="no"?><!DOCTYPE svg PUBLIC "-//W3C//DTD SVG 1.1//EN" "http://www.w3.org/Graphics/SVG/1.1/DTD/svg11.dtd"><svg t="1645534454248" class="icon" viewBox="0 0 1024 1024" version="1.1" xmlns="http://www.w3.org/2000/svg" p-id="2029" xmlns:xlink="http://www.w3.org/1999/xlink" width="200" height="200"><defs><style type="text/css"></style></defs><path d="M885.113 489.373L628.338 232.599c-12.496-12.497-32.758-12.497-45.254 0-12.497 12.497-12.497 32.758 0 45.255l203.3 203.3H158.025c-17.036 0-30.846 13.811-30.846 30.846 0 17.036 13.811 30.846 30.846 30.846h628.36L583.084 746.147c-12.497 12.496-12.497 32.758 0 45.255 6.248 6.248 14.438 9.372 22.627 9.372s16.379-3.124 22.627-9.372l256.775-256.775a31.999 31.999 0 0 0 0-45.254z" fill="#5F6368" p-id="2030"></path></svg>