<?xml version="1.0" standalone="no"?><!DOCTYPE svg PUBLIC "-//W3C//DTD SVG 1.1//EN" "http://www.w3.org/Graphics/SVG/1.1/DTD/svg11.dtd"><svg t="1645120328713" class="icon" viewBox="0 0 1024 1024" version="1.1" xmlns="http://www.w3.org/2000/svg" p-id="3576" xmlns:xlink="http://www.w3.org/1999/xlink" width="200" height="200"><defs><style type="text/css"></style></defs><path d="M511.950028 0.116655c-282.72239 0-511.950005 229.227614-511.950005 511.950005 0 174.137161 86.979006 327.947141 219.841031 420.433942a0.499951 0.499951 0 0 1 0.020832-0.074993l-0.083326-0.054161c0.649937-2.262279 1.370699-4.482896 2.070632-6.716011 0.249976-0.791589 0.47912-1.599844 0.737428-2.387267a289.880025 289.880025 0 0 1 9.286593-24.851739c0.3458-0.812421 0.716597-1.616509 1.070728-2.42893a285.538782 285.538782 0 0 1 10.590633-21.618722c0.383296-0.704098 0.754093-1.420695 1.145721-2.124792a275.998047 275.998047 0 0 1 13.498682-21.835368c0.562445-0.820753 1.141555-1.624841 1.712333-2.437262a277.8437 277.8437 0 0 1 7.874231-10.698955c1.966475-2.533086 3.978778-5.032842 6.032744-7.495102 0.649937-0.783257 1.283208-1.57068 1.941477-2.345604a276.348013 276.348013 0 0 1 17.106663-18.310712c0.866582-0.841584 1.749829-1.662338 2.624744-2.499756a281.326693 281.326693 0 0 1 9.703219-8.811639l1.041565-0.916577v0.045829c23.914331-20.481333 51.544966-37.100544 82.204472-49.211861a307.815773 307.815773 0 0 1 12.782085-4.737038 340.212609 340.212609 0 0 1 8.669987-2.845555c1.337369-0.416626 2.666406-0.849917 4.012108-1.254044a317.369007 317.369007 0 0 1 12.827914-3.570485l0.208313-0.049995a337.092081 337.092081 0 0 1 12.957068-2.991375c1.379032-0.287472 2.770563-0.549946 4.157927-0.824919a357.827556 357.827556 0 0 1 14.16945-2.512255 342.620708 342.620708 0 0 1 9.682387-1.354034c1.424861-0.179149 2.841389-0.37913 4.274583-0.541614a355.981903 355.981903 0 0 1 14.040295-1.354034h25.747486c-99.569443 0-185.019432-60.381603-221.778342-146.519025-13.032061 64.393712-91.30775 120.496566-138.653126 101.406764 32.242685-31.78023 5.253654-190.418904 119.504996-189.239853-8.15337-158.647007 139.003092-254.679296 240.930638-247.721642h0.116656c102.035869-6.957654 249.546464 89.074635 241.28477 247.721642 113.888878-1.145721 86.899847 157.701266 119.025876 189.477329-47.395372 19.264785-125.729388-37.37135-138.428148-102.144191-36.638089 86.404062-122.242229 147.018976-222.00332 147.018976h25.980796c4.724539 0.354132 9.394916 0.820753 14.03613 1.354034 1.43736 0.162484 2.858054 0.362465 4.278748 0.541614a357.594245 357.594245 0 0 1 14.40276 2.124792c3.153859 0.533281 6.28272 1.120724 9.394916 1.733164 1.412362 0.279139 2.82889 0.54578 4.23292 0.841585 4.241252 0.895746 8.445009 1.853986 12.602936 2.908049 0.270807 0.06666 0.54578 0.129154 0.816587 0.204147 4.19959 1.070729 8.340852 2.237282 12.448784 3.466328 1.462357 0.433291 2.899717 0.904078 4.349576 1.358201 2.76223 0.866582 5.503629 1.762328 8.224197 2.69557a318.968851 318.968851 0 0 1 12.51961 4.624548c30.292875 11.907171 57.631872 28.213911 81.367054 48.29945v-0.045829c0.362465 0.299971 0.704098 0.624939 1.062396 0.933243 1.953976 1.666504 3.874622 3.362172 5.778603 5.082837 0.979071 0.887413 1.94981 1.791492 2.916382 2.691403 2.003971 1.862318 4.003776 3.737135 5.953585 5.661947 0.370797 0.366631 0.729095 0.749927 1.099893 1.120724a273.37747 273.37747 0 0 1 19.889724 22.172835c0.437457 0.54578 0.883247 1.087394 1.312372 1.633174 1.953976 2.466426 3.862123 4.966182 5.728607 7.503434 0.333301 0.454122 0.662435 0.920743 0.995736 1.379032 18.98148 26.089119 33.530059 55.769554 42.90831 88.374703 132.749536-92.503466 219.645217-246.246786 219.645217-420.300622C1023.900033 229.34427 794.676585 0.116655 511.950028 0.116655z" fill="#FCD077" p-id="3577"></path><path d="M733.953348 578.685154c11.323894-26.709892 17.902418-55.898708 18.835661-86.508218-70.58894 43.574911-216.458028-31.271946-240.843147-134.461869-24.318458 103.423233-170.558344 178.395079-240.85148 134.195228 0.912411 30.901149 7.582593 60.356606 19.073138 87.278977 36.75891 86.137421 122.208899 146.519025 221.778342 146.519025 99.769424 0 185.369398-60.614914 222.007486-147.023143z" fill="#FCE9EA" p-id="3578"></path><path d="M511.950028 357.715067V243.634541c-101.92338-6.957654-249.079842 89.074635-240.930638 247.721642-114.251343-1.179052-87.258145 157.459623-119.504996 189.239853 47.349543 19.089802 125.621066-37.013052 138.653126-101.406764-11.490545-26.922371-18.160726-56.373661-19.073138-87.278977 70.297302 44.19985 216.537187-30.771995 240.855646-134.195228z" fill="#ADBE20" p-id="3579"></path><path d="M752.793175 492.176936c-0.937408 30.609511-7.515933 59.798327-18.835661 86.508218 12.69876 64.772841 91.032777 121.408977 138.428149 102.144192-32.126029-31.776064-5.136998-190.623051-119.025877-189.47733 8.261693-158.647007-139.248901-254.679296-241.28477-247.721641h-0.116655V357.715067c24.376786 103.189923 170.245874 178.040947 240.834814 134.461869z" fill="#BECF3D" p-id="3580"></path><path d="M726.366589 804.521433zM596.8834 735.211535c0.270807 0.070826 0.54578 0.129154 0.816587 0.204147a19.477265 19.477265 0 0 0-0.816587-0.204147zM580.047545 731.457735c1.412362 0.279139 2.82889 0.54578 4.23292 0.841585-1.40403-0.295804-2.820558-0.558279-4.23292-0.841585zM804.238151 932.375614a510.754288 510.754288 0 0 1 0.016665-0.008332c-9.378251-32.605149-23.92683-62.285584-42.90831-88.374703 18.964815 26.093285 33.525893 55.777886 42.891645 88.383035zM771.599672 953.327735zM754.622163 835.110113zM733.415901 811.304104zM717.671605 796.747193zM622.722544 742.935781zM610.152938 738.88201c1.462357 0.433291 2.899717 0.904078 4.349575 1.358201-1.449858-0.458289-2.891384-0.92491-4.349575-1.358201zM565.919758 728.957979zM716.609208 795.859779c-23.735182-20.081372-51.074179-36.388113-81.367054-48.29945 0.470787 0.183315 0.949907 0.370797 1.420695 0.562445v133.936921h-251.308791v-133.107835c1.020734-0.416626 2.053966-0.812421 3.078866-1.216548-30.659506 12.107151-58.290141 28.730528-82.204473 49.211861v183.911207a512.170817 512.170817 0 0 1-86.362399-48.428604l-0.020831 0.074992c82.846076 57.673534 183.523744 91.516063 292.108973 91.516063 74.713537 0 145.681607-16.019269 209.675358-44.787293-1.654005 0.745761-3.353839 1.416528-5.016177 2.145624v-185.519383zM409.880829 740.156886c1.337369-0.416626 2.666406-0.849917 4.012108-1.254044-1.345702 0.404127-2.670573 0.841584-4.012108 1.254044zM273.802451 829.781467c0.649937-0.783257 1.283208-1.57068 1.941477-2.345605-0.658269 0.774924-1.291541 1.562347-1.941477 2.345605zM439.886232 732.295153c1.379032-0.287472 2.770563-0.549946 4.157928-0.824919-1.387365 0.274973-2.783062 0.533281-4.157928 0.824919zM426.720851 735.332357l0.208313-0.049995-0.208313 0.049995zM265.582421 840.138789zM453.497403 729.720405zM292.854757 809.129317c0.866582-0.841584 1.749829-1.662338 2.624744-2.499756-0.874915 0.837418-1.762328 1.658171-2.624744 2.499756zM302.033028 800.584318zM396.782108 744.568955zM237.285184 886.555089zM221.849192 925.659604c0.249976-0.791589 0.47912-1.599844 0.737428-2.387267-0.254142 0.787423-0.487452 1.591511-0.737428 2.387267zM231.877379 898.420597c0.3458-0.812421 0.716597-1.620675 1.070729-2.42893-0.354132 0.812421-0.724929 1.612343-1.070729 2.42893zM551.97112 727.062331c1.43736 0.162484 2.858054 0.362465 4.278749 0.541614-1.424861-0.179149-2.845555-0.37913-4.278749-0.541614zM467.891831 727.603945c1.424861-0.179149 2.841389-0.37913 4.274582-0.541614-1.433193 0.162484-2.849722 0.362465-4.274582 0.541614zM258.183143 850.408619c0.562445-0.820753 1.141555-1.624841 1.712333-2.437262-0.570778 0.816587-1.154054 1.616509-1.712333 2.437262zM243.534574 874.368779c0.383296-0.704098 0.754093-1.420695 1.145721-2.124792-0.387462 0.704098-0.758259 1.420695-1.145721 2.124792zM737.848801 971.563454z" fill="#FF9F31" p-id="3581"></path><path d="M385.354058 882.063861h251.308791v-133.93692a296.31273 296.31273 0 0 0-22.164502-7.882564c-1.449858-0.454122-2.887218-0.92491-4.349575-1.358201a314.327637 314.327637 0 0 0-12.448785-3.466328c-0.270807-0.074993-0.54578-0.13332-0.816587-0.204146a324.118348 324.118348 0 0 0-12.602935-2.90805c-1.40403-0.295804-2.820558-0.562445-4.23292-0.841584a356.236045 356.236045 0 0 0-14.127787-2.503922 343.866419 343.866419 0 0 0-9.669889-1.354035c-1.424861-0.179149-2.845555-0.37913-4.278749-0.541614a355.769424 355.769424 0 0 0-14.03613-1.354034h-51.728281a356.748495 356.748495 0 0 0-14.040296 1.354034c-1.433193 0.162484-2.849722 0.362465-4.274582 0.541614a360.868926 360.868926 0 0 0-14.394428 2.120626c-3.17469 0.537448-6.324382 1.129056-9.45741 1.745663-1.387365 0.274973-2.778895 0.537448-4.157927 0.82492a337.092081 337.092081 0 0 0-12.957068 2.991374l-0.208313 0.049995a331.659278 331.659278 0 0 0-12.827914 3.570485c-1.345702 0.404127-2.674739 0.837418-4.012108 1.254044a324.468314 324.468314 0 0 0-13.102887 4.412069c-2.808059 1.016567-5.586954 2.078964-8.349185 3.170524-1.029066 0.404127-2.058132 0.799922-3.078866 1.216548v133.099502z m126.59597-118.567588a15.231846 15.231846 0 1 1 0 30.467858 15.236012 15.236012 0 0 1 0-30.467858z m0 55.152947a15.231846 15.231846 0 1 1 0 30.463692 15.236012 15.236012 0 0 1 0-30.463692zM306.224285 796.947173v-0.045829c-0.349966 0.299971-0.691599 0.608274-1.041565 0.916577a282.039124 282.039124 0 0 0-9.703219 8.81164c-0.874915 0.833252-1.762328 1.654005-2.624744 2.499756a272.127592 272.127592 0 0 0-17.106662 18.310712c-0.658269 0.774924-1.295707 1.562347-1.941477 2.345604a267.928002 267.928002 0 0 0-13.906976 18.194056c-0.570778 0.812421-1.149888 1.616509-1.712332 2.437262a276.756306 276.756306 0 0 0-13.498682 21.835368c-0.391628 0.704098-0.762426 1.420695-1.145722 2.124793a280.310126 280.310126 0 0 0-10.590632 21.618722c-0.354132 0.808254-0.720763 1.616509-1.070729 2.428929a288.49266 288.49266 0 0 0-9.286593 24.85174c-0.258308 0.787423-0.487452 1.595678-0.737428 2.387267-0.699932 2.233115-1.420695 4.453732-2.070631 6.716011a512.170817 512.170817 0 0 0 86.445725 48.482765v-183.915373zM761.350673 843.992579c-0.333301-0.458289-0.662435-0.92491-0.995737-1.379032a270.098623 270.098623 0 0 0-5.728607-7.503434l-1.312372-1.633174a273.456629 273.456629 0 0 0-19.889724-22.172835c-0.370797-0.370797-0.729095-0.754093-1.099893-1.120723a263.245126 263.245126 0 0 0-5.953585-5.661948 220.715946 220.715946 0 0 0-2.916382-2.691403 279.814341 279.814341 0 0 0-5.778602-5.082837c-0.358298-0.304137-0.699932-0.629105-1.062396-0.933243V981.37083c1.662338-0.729095 3.362172-1.399863 5.016177-2.145624l0.029163-0.012499a508.700322 508.700322 0 0 0 16.194252-7.653419l2.258113-1.120724a510.675129 510.675129 0 0 0 31.492758-17.114995l1.458191-0.85825a510.183511 510.183511 0 0 0 31.184454-20.093871c-9.374085-32.600983-23.935163-62.285584-42.89581-88.378869z" fill="#FEFEFE" p-id="3582"></path><path d="M511.950028 778.732285m-15.236012 0a15.236012 15.236012 0 1 0 30.472024 0 15.236012 15.236012 0 1 0-30.472024 0Z" fill="#FF9F31" p-id="3583"></path><path d="M511.950028 833.881066m-15.231846 0a15.231846 15.231846 0 1 0 30.463692 0 15.231846 15.231846 0 1 0-30.463692 0Z" fill="#FF9F31" p-id="3584"></path></svg>