<?xml version="1.0" standalone="no"?><!DOCTYPE svg PUBLIC "-//W3C//DTD SVG 1.1//EN" "http://www.w3.org/Graphics/SVG/1.1/DTD/svg11.dtd"><svg t="1646838831257" class="icon" viewBox="0 0 1025 1024" version="1.1" xmlns="http://www.w3.org/2000/svg" p-id="12432" xmlns:xlink="http://www.w3.org/1999/xlink" width="200.1953125" height="200"><defs><style type="text/css"></style></defs><path d="M892.490698 304.182773c-18.137835 0-32.978035-15.043467-32.978035-33.653353L859.512662 214.499853c0-61.648818-44.285414-111.991601-98.866574-111.991601L167.573978 102.508252c-54.51598 0-98.868254 50.242325-98.868254 111.991601l0 582.539499c0 61.752971 44.386208 111.991601 98.868254 111.991601l131.777414 0c18.139515 0 32.979715 15.043467 32.979715 33.653353 0 18.507413-14.773004 33.582798-32.979715 33.582798L167.573978 976.267103c-90.759397 0-164.758809-80.357482-164.758809-179.125278L2.815169 214.567049c0-98.764101 73.898282-179.125278 164.758809-179.125278l593.038512 0c90.856831 0 164.755449 80.359162 164.755449 179.125278l0 56.029566C925.367939 289.139305 910.630213 304.182773 892.490698 304.182773zM134.661459 539.372559c0-18.507413 14.773004-33.584478 32.877242-33.584478l197.636051 0c18.238629 0 32.978035 15.041787 32.978035 33.584478 0 18.509092-14.773004 33.653353-32.978035 33.653353L167.538701 573.025912C149.434463 572.921423 134.661459 557.881651 134.661459 539.372559zM134.661459 337.766914c0-18.509092 14.773004-33.584478 32.877242-33.584478l263.657301 0c18.139515 0 32.878922 15.041787 32.878922 33.584478 0 18.609886-14.774684 33.582798-32.878922 33.582798L167.573978 371.349712C149.434463 371.317794 134.661459 356.276007 134.661459 337.766914zM612.64592 682.526227c-49.871068-36.682206-82.680778-96.007392-82.680778-163.312419 0-111.114695 88.738482-201.605308 197.636051-201.605308 108.895552 0 197.636051 90.490614 197.636051 201.605308 0 67.338289-32.811726 126.665491-82.684138 163.312419 105.127546 53.437487 181.450254 171.891647 181.450254 273.483012 0 18.608206-14.773004 33.584478-32.979715 33.584478-18.137835 0-32.877242-15.041787-32.877242-33.584478 0-92.877746-103.308219-235.186426-230.647348-235.186426-127.337449 0-230.647348 142.276763-230.647348 235.186426 0 18.608206-14.773004 33.584478-32.978035 33.584478-18.137835 0-32.877242-15.041787-32.877242-33.584478C431.196002 854.417538 507.518374 735.963378 612.64592 682.526227zM859.477384 519.213809c0-74.066272-59.021125-134.369493-131.775734-134.369493-72.756289 0-131.747176 60.271303-131.747176 134.369493 0 74.167066 59.0265 134.371173 131.780774 134.371173C800.45626 653.584982 859.477384 593.382554 859.477384 519.213809z" p-id="12433" fill="#8a8a8a"></path></svg>