<?xml version="1.0" standalone="no"?><!DOCTYPE svg PUBLIC "-//W3C//DTD SVG 1.1//EN" "http://www.w3.org/Graphics/SVG/1.1/DTD/svg11.dtd"><svg t="1645959754928" class="icon" viewBox="0 0 1024 1024" version="1.1" xmlns="http://www.w3.org/2000/svg" p-id="12473" xmlns:xlink="http://www.w3.org/1999/xlink" width="200" height="200"><defs><style type="text/css"></style></defs><path d="M513.023306 401.066445m-149.158135 0a149.158135 149.158135 0 1 0 298.31627 0 149.158135 149.158135 0 1 0-298.31627 0Z" p-id="12474" data-spm-anchor-id="a313x.7781069.0.i16" class="" fill="#5995fd"></path><path d="M513.023306 65.459874c-247.133563 0-447.474404 200.340841-447.474404 447.474405S265.889743 960.408683 513.023306 960.408683s447.474404-200.340841 447.474405-447.474404S760.155846 65.459874 513.023306 65.459874z m272.202519 754.331188c4.88424-20.698414 7.468089-42.284035 7.468089-64.474431 0-100.883665-53.416584-189.292204-133.508714-238.484579-34.151821 43.062771-86.931908 70.681806-146.161894 70.681806s-112.010073-27.619034-146.162917-70.680783C286.767236 566.024427 233.351676 654.432966 233.351676 755.316631c0 22.189372 2.583848 43.776016 7.468088 64.474431-84.643796-75.140351-137.981584-184.76919-137.981584-306.85576 0-226.538503 183.6456-410.185126 410.185126-410.185127S923.207409 286.395776 923.207409 512.934279c0 122.086569-53.336766 231.716432-137.981584 306.856783z" p-id="12475" data-spm-anchor-id="a313x.7781069.0.i14" class="" fill="#5995fd"></path></svg>