<?xml version="1.0" standalone="no"?><!DOCTYPE svg PUBLIC "-//W3C//DTD SVG 1.1//EN" "http://www.w3.org/Graphics/SVG/1.1/DTD/svg11.dtd"><svg t="1646838572692" class="icon" viewBox="0 0 1024 1024" version="1.1" xmlns="http://www.w3.org/2000/svg" p-id="3101" xmlns:xlink="http://www.w3.org/1999/xlink" width="200" height="200"><defs><style type="text/css"></style></defs><path d="M832 500.6208c0 13.056-5.76 24.8768-14.8352 32.9856l-148.0768 132.896c-7.8976 7.0016-18.3488 11.264-29.7472 11.264-24.6016 0-44.5248-19.7888-44.5248-44.2496 0-13.1968 5.76-24.8768 14.8352-32.9792l62.048-55.6544L472.5632 544.8832c-24.5248 0-44.3904-19.7888-44.3904-44.3904 0-24.4608 19.8656-44.2496 44.3904-44.2496l199.136 0-62.048-55.6544c-9.0752-8.1088-14.8352-19.8592-14.8352-32.9792 0-24.4608 19.9232-44.256 44.5248-44.256 11.3984 0 21.8496 4.2624 29.7472 11.4048l148.0768 132.8896C826.24 475.7504 832 487.5712 832 500.6208M406.0096 216.64 280.8384 216.64l0 590.7264 125.1712 0c24.5312 0 44.3904 19.9232 44.3904 44.3904 0 24.6016-19.9296 44.2496-44.3904 44.2496L236.4544 896.0064c-24.5248 0-44.448-19.648-44.448-44.2496L192.0064 172.32C192 147.8592 211.9296 128 236.4544 128l169.5552 0c24.4544 0 44.3904 19.8592 44.3904 44.32C450.4 196.7808 430.5408 216.64 406.0096 216.64" p-id="3102" fill="#8a8a8a"></path></svg>