<?xml version="1.0" standalone="no"?><!DOCTYPE svg PUBLIC "-//W3C//DTD SVG 1.1//EN" "http://www.w3.org/Graphics/SVG/1.1/DTD/svg11.dtd"><svg t="1645842909917" class="icon" viewBox="0 0 1024 1024" version="1.1" xmlns="http://www.w3.org/2000/svg" p-id="3299" xmlns:xlink="http://www.w3.org/1999/xlink" width="200" height="200"><defs><style type="text/css"></style></defs><path d="M576.5 930.2H163.1c-52.9 0-96-43.1-96-96v-672c0-52.9 43.1-96 96-96h672c52.9 0 96 43.1 96 96V577c0 17.7-14.3 32-32 32s-32-14.3-32-32V162.2c0-17.6-14.4-32-32-32h-672c-17.6 0-32 14.4-32 32v672c0 17.6 14.4 32 32 32h413.4c17.7 0 32 14.3 32 32s-14.3 32-32 32z" fill="#8a8a8a" p-id="3300"></path><path d="M692.4 322.3H245.7c-17.7 0-32-14.3-32-32s14.3-32 32-32h446.7c17.7 0 32 14.3 32 32s-14.3 32-32 32zM388.5 530.2H245.7c-17.7 0-32-14.3-32-32s14.3-32 32-32h142.7c17.7 0 32 14.3 32 32 0.1 17.6-14.3 32-31.9 32zM388.5 738H245.7c-17.7 0-32-14.3-32-32s14.3-32 32-32h142.7c17.7 0 32 14.3 32 32 0.1 17.7-14.3 32-31.9 32z" fill="#8a8a8a" p-id="3301"></path><path d="M624.1 792.5c-94.8 0-172-77.2-172-172s77.2-172 172-172 172 77.2 172 172-77.1 172-172 172z m0-280c-59.6 0-108 48.4-108 108s48.4 108 108 108 108-48.4 108-108-48.4-108-108-108z" fill="#8a8a8a" p-id="3302"></path><path d="M820.8 864.2L710.5 753.9c-12.5-12.5-12.5-32.8 0-45.3s32.8-12.5 45.3 0L866 818.9c12.5 12.5 12.5 32.8 0 45.3s-32.7 12.5-45.2 0z" fill="#8a8a8a" p-id="3303"></path></svg>