<?xml version="1.0" standalone="no"?><!DOCTYPE svg PUBLIC "-//W3C//DTD SVG 1.1//EN" "http://www.w3.org/Graphics/SVG/1.1/DTD/svg11.dtd"><svg t="1648109689010" class="icon" viewBox="0 0 1024 1024" version="1.1" xmlns="http://www.w3.org/2000/svg" p-id="6676" xmlns:xlink="http://www.w3.org/1999/xlink" width="200" height="200"><defs><style type="text/css">@font-face { font-family: feedback-iconfont; src: url("//at.alicdn.com/t/font_1031158_u69w8yhxdu.woff2?t=1630033759944") format("woff2"), url("//at.alicdn.com/t/font_1031158_u69w8yhxdu.woff?t=1630033759944") format("woff"), url("//at.alicdn.com/t/font_1031158_u69w8yhxdu.ttf?t=1630033759944") format("truetype"); }
</style></defs><path d="M643.2 195l63.2 63.4-152.6 153V195z m-324.8 63.4l152.6 153V195h-89.4z m83-83.2h89.4v255.8l21.6 21.6 21.6-21.6V175.2h89.4L512.4 64z m52.4 336.2l-21.6-21.6H175v-89.6L64 511.4l111 111.2v-89.6h257.2l21.6-21.6z m158.6-41.4h215.8v-89.6l-63.2-63.4z m346.6 41.4L848 400.2v89.6H592.6l-21.6 21.6 21.6 21.6H848v89.6l111-111.2zM194.8 352.4l65-63.4 180.6 181h30.6v-30.6l-180.6-181 63.2-63.4H194.8z m633.4-157.4h-157l63.2 63.4-180.6 181V470h30.6l180.6-181 63.2 63.4zM471 827.8V611.6l-152.6 153 63.2 63.4h89.4zM194.8 470h217.6l-152.6-153-65 63.4z m633.4 200.4l-63.2 63.4-180.6-181h-30.6v30.6l180.6 181-63.2 63.4h157z m0-117.6H612.4l152.6 153 63.2-63.4z m-121.8 211.6l-152.6-153v216.2h89.4zM259.8 705.8l152.6-153H194.8v89.6z m363.6 141.8H534V591.8l-21.6-21.6-21.6 21.6v255.8h-89.4l111 111.2z m-333-83.2l180.6-181v-30.6h-30.6l-180.6 181-65-63.4v157.4h158.8z" p-id="6677" fill="#707070"></path></svg>