<?xml version="1.0" standalone="no"?><!DOCTYPE svg PUBLIC "-//W3C//DTD SVG 1.1//EN" "http://www.w3.org/Graphics/SVG/1.1/DTD/svg11.dtd"><svg t="1646050138469" class="icon" viewBox="0 0 1024 1024" version="1.1" xmlns="http://www.w3.org/2000/svg" p-id="8294" xmlns:xlink="http://www.w3.org/1999/xlink" width="200" height="200"><defs><style type="text/css"></style></defs><path d="M490.338462 592.738462c11.815385 11.815385 29.538462 11.815385 41.353846 0l445.046154-413.538462c9.846154-15.753846 7.876923-41.353846-23.63077-41.353846l-882.215384 1.969231c-23.630769 0-43.323077 21.661538-25.6 41.353846l445.046154 411.569231zM984.615385 340.676923c0-19.692308-23.630769-31.507692-39.384616-17.723077L596.676923 643.938462c-23.630769 21.661538-53.169231 33.476923-84.676923 33.476923s-61.046154-11.815385-84.676923-31.507693L80.738462 322.953846c-15.753846-13.784615-39.384615-3.938462-39.384616 17.723077C39.384615 429.292308 39.384615 669.538462 39.384615 787.692308c0 43.323077 35.446154 78.769231 78.769231 78.76923h787.692308c43.323077 0 78.769231-35.446154 78.769231-78.76923V340.676923z" p-id="8295" fill="#acacac"></path></svg>