<?xml version="1.0" standalone="no"?><!DOCTYPE svg PUBLIC "-//W3C//DTD SVG 1.1//EN" "http://www.w3.org/Graphics/SVG/1.1/DTD/svg11.dtd"><svg t="1646049951331" class="icon" viewBox="0 0 1024 1024" version="1.1" xmlns="http://www.w3.org/2000/svg" p-id="3355" xmlns:xlink="http://www.w3.org/1999/xlink" width="200" height="200"><defs><style type="text/css"></style></defs><path d="M984.615385 846.769231v43.323077c0 51.2-43.323077 94.523077-94.523077 94.523077H133.907692C82.707692 984.615385 39.384615 941.292308 39.384615 890.092308V846.769231c0-114.215385 133.907692-185.107692 259.938462-240.246154l11.815385-5.907692c9.846154-3.938462 19.692308-3.938462 29.538461 1.96923 51.2 33.476923 108.307692 51.2 169.353846 51.2s120.123077-19.692308 169.353846-51.2c9.846154-5.907692 19.692308-5.907692 29.538462-1.96923l11.815385 5.907692C850.707692 661.661538 984.615385 730.584615 984.615385 846.769231zM512 39.384615c129.969231 0 234.338462 116.184615 234.338462 259.938462S641.969231 559.261538 512 559.261538s-234.338462-116.184615-234.338462-259.938461S382.030769 39.384615 512 39.384615z" p-id="3356" fill="#acacac"></path></svg>