<?xml version="1.0" standalone="no"?><!DOCTYPE svg PUBLIC "-//W3C//DTD SVG 1.1//EN"
        "http://www.w3.org/Graphics/SVG/1.1/DTD/svg11.dtd">
<svg xmlns:xlink="http://www.w3.org/1999/xlink" t="1648905522954" class="icon" viewBox="0 0 1024 1024" version="1.1"
     xmlns="http://www.w3.org/2000/svg" p-id="24232" data-spm-anchor-id="a313x.7781069.0.i21" width="200"
     height="200">
    <defs>
        <style type="text/css">@font-face { font-family: feedback-iconfont; src:
            url("//at.alicdn.com/t/font_1031158_u69w8yhxdu.woff2?t=1630033759944") format("woff2"),
            url("//at.alicdn.com/t/font_1031158_u69w8yhxdu.woff?t=1630033759944") format("woff"),
            url("//at.alicdn.com/t/font_1031158_u69w8yhxdu.ttf?t=1630033759944") format("truetype"); }
        </style>
    </defs>
    <path d="M528.384 729.088c-60.928 0-110.08 49.152-110.08 110.08s49.152 110.08 110.08 110.08 110.08-49.152 110.08-110.08c0.512-60.928-49.152-110.08-110.08-110.08z m0 165.376c-30.72 0-55.296-24.576-55.296-55.296 0-30.72 24.576-55.296 55.296-55.296 30.72 0 55.296 24.576 55.296 55.296 0 30.72-24.576 55.296-55.296 55.296z m358.912-165.376c-60.928 0-110.08 49.152-110.08 110.08s49.152 110.08 110.08 110.08 110.08-49.152 110.08-110.08-49.152-110.08-110.08-110.08z m0 165.376c-30.72 0-55.296-24.576-55.296-55.296 0-30.72 24.576-55.296 55.296-55.296 30.72 0 55.296 24.576 55.296 55.296-0.512 30.72-25.088 55.296-55.296 55.296zM169.984 729.088c-60.928 0-110.08 49.152-110.08 110.08s49.152 110.08 110.08 110.08 110.08-49.152 110.08-110.08-49.152-110.08-110.08-110.08z m0 165.376c-30.72 0-55.296-24.576-55.296-55.296 0-30.72 24.576-55.296 55.296-55.296S225.28 808.96 225.28 839.168c0 30.72-25.088 55.296-55.296 55.296z m689.664-468.992h-303.616V344.064c74.752-15.36 122.88-88.064 107.52-162.816-15.36-74.752-88.064-122.88-162.816-107.52-74.752 15.36-122.88 88.064-107.52 162.816 11.264 54.272 53.248 96.256 107.52 107.52v81.408H197.632c-30.72 0-55.296 24.576-55.296 55.296v165.376c0 15.36 12.288 27.648 27.648 27.648s27.648-12.288 27.648-27.648V508.416c0-15.36 12.288-27.648 27.648-27.648h606.72c15.36 0 27.648 12.288 27.648 27.648v137.728c0 15.36 12.288 27.648 27.648 27.648s27.648-12.288 27.648-27.648V480.768c0-30.72-25.088-55.296-55.296-55.296zM445.952 208.896c0-45.568 36.864-82.944 82.944-82.944s82.944 36.864 82.944 82.944c0 45.568-36.864 82.944-82.944 82.944s-82.944-36.864-82.944-82.944z"
          fill="#707070" p-id="24233" data-spm-anchor-id="a313x.7781069.0.i15" class=""></path>
    <path d="M280.064 513.536h490.496c30.208 0 54.272 24.576 54.272 54.272v54.272c0 30.208-24.576 54.272-54.272 54.272H280.064c-30.208 0-54.272-24.576-54.272-54.272V568.32c0-30.208 24.064-54.784 54.272-54.784z"
          fill="#999999" p-id="24234" data-spm-anchor-id="a313x.7781069.0.i20" class=""></path>
</svg>
